{"title":"Geordie Shore Complete Season 7 (2013) WEB-DL","uid":11739277,"size":3096419314,"categoryP":"video","categoryS":"tv_shows","magnet":"?xt=urn:btih:a07273b6a12bd9efd99c21cf2243f21be6c1d81a&amp;dn=+Geordie+Shore+Complete+Season+7+%282013%29+WEB-DL&amp;tr=udp%3A%2F%2Ftracker.openbittorrent.com%3A80&amp;tr=udp%3A%2F%2Fopen.demonii.com%3A1337&amp;tr=udp%3A%2F%2Ftracker.coppersurfer.tk%3A6969&amp;tr=udp%3A%2F%2Fexodus.desync.com%3A6969","seeders":39,"leechers":8,"uploader":"jmanwf","files":12,"time":1425702571,"description":"Description\n\nThe Geordies are back where they belong, in Newcastle, for a jaw-dropping summer season of partying, pulling, bucking, necking on and getting mortal. It's back to their old stomping ground, but something's different - there's a new girl in town, and she's hot property! See how the boys get struck by the beauty of their new housemate while the girls' tongues are set to wag more than ever in this brand new Season!\n\n\nVideo\nID : 2\nFormat : AVC\nFormat/Info : Advanced Video Codec\nFormat profile : &lt;a class=&quot;__cf_email__&quot; href=&quot;/cdn-cgi/l/email-protection&quot; data-cfemail=&quot;aeeccfddcbc2c7c0cbeee29d809e&quot;&gt;[email&amp;#160;protected]&lt;/a&gt;&lt;script cf-hash='f9e31' type=&quot;text/javascript&quot;&gt;\n/* &lt;![CDATA[ */!function(){try{var t=&quot;currentScript&quot;in document?document.currentScript:function(){for(var t=document.getElementsByTagName(&quot;script&quot;),e=t.length;e--;)if(t[e].getAttribute(&quot;cf-hash&quot;))return t[e]}();if(t&amp;&amp;t.previousSibling){var e,r,n,i,c=t.previousSibling,a=c.getAttribute(&quot;data-cfemail&quot;);if(a){for(e=&quot;&quot;,r=parseInt(a.substr(0,2),16),n=2;a.length-n;n+=2)i=parseInt(a.substr(n,2),16)^r,e+=String.fromCharCode(i);e=document.createTextNode(e),c.parentNode.replaceChild(e,c)}}}catch(u){}}();/* ]]&gt; */&lt;/script&gt;\nFormat settings, CABAC : No\nFormat settings, ReFrames : 1 frame\nCodec ID : avc1\nCodec ID/Info : Advanced Video Coding\nDuration : 42mn 21s\nBit rate : 1 501 Kbps\nWidth : 640 pixels\nHeight : 480 pixels\nDisplay aspect ratio : 16:9\nFrame rate mode : Constant\nFrame rate : 25.000 fps\nColor space : YUV\nChroma subsampling : 4:2:0\nBit depth : 8 bits\nScan type : Progressive\nBits/(Pixel*Frame) : 0.195\nStream size : 455 MiB (92%)\nLanguage : English\nEncoded date : UTC 2015-03-05 10:10:48\nTagged date : UTC 2015-03-05 10:13:00\nColor primaries : BT.601 NTSC\nTransfer characteristics : BT.709\nMatrix coefficients : BT.601\nColor range : Limited\n\nAudio\nID : 1\nFormat : AAC\nFormat/Info : Advanced Audio Codec\nFormat profile : LC\nCodec ID : 40\nDuration : 42mn 21s\nBit rate mode : Variable\nBit rate : 126 Kbps\nMaximum bit rate : 208 Kbps\nChannel(s) : 2 channels\nChannel positions : Front: L R\nSampling rate : 44.1 KHz\nCompression mode : Lossy\nStream size : 38.0 MiB (8%)\nLanguage : English\nEncoded date : UTC 2015-03-05 10:10:48\nTagged date : UTC 2015-03-05 10:13:00\n\nText\nID : 3-CC1\nFormat : EIA-608\nMuxing mode : Final Cut\nCodec ID : c608\nDuration : 41mn 58s\nBit rate mode : Constant\nStream size : 0.00 Byte (0%)\nLanguage : English\nEncoded date : UTC 2015-03-05 10:10:48\nTagged date : UTC 2015-03-05 10:11:14\n\n\n\n\n\nALL 6 Episodes of Season 7\n\n\n\n\n\n\n\nALL In MP4\n\nALL Have English Subtitles \n &lt;a href=&quot;\nhttps://itunes.apple.com/au/tv-season/geordie-shore-season-7/id702790849&quot; rel=&quot;nofollow&quot; target=&quot;_NEW&quot;&gt;\nhttps://itunes.apple.com/au/tv-season/geordie-shore-season-7/id702790849&lt;/a&gt;","torrent":{"xt":"urn:btih:a07273b6a12bd9efd99c21cf2243f21be6c1d81a","amp;dn":"+Geordie+Shore+Complete+Season+7+%282013%29+WEB-DL","amp;tr":["udp%3A%2F%2Ftracker.openbittorrent.com%3A80","udp%3A%2F%2Fopen.demonii.com%3A1337","udp%3A%2F%2Ftracker.coppersurfer.tk%3A6969","udp%3A%2F%2Fexodus.desync.com%3A6969"],"infoHash":"a07273b6a12bd9efd99c21cf2243f21be6c1d81a","infoHashBuffer":{"type":"Buffer","data":[160,114,115,182,161,43,217,239,217,156,33,207,34,67,242,27,230,193,216,26]},"announce":[],"urlList":[]}}